<svg width="297" height="297" viewBox="0 0 297 297" fill="none" xmlns="http://www.w3.org/2000/svg">
<g clip-path="url(#clip0_6_18)">
<g filter="url(#filter0_iii_6_18)">
<path d="M30.7361 111.79C45.6379 50.05 107.768 12.0803 169.508 26.9821L181.173 29.7976C245.06 45.2177 284.351 109.509 268.931 173.396L267.054 181.173C251.633 245.06 187.342 284.351 123.455 268.931L119.566 267.992C53.5317 252.054 12.9206 185.601 28.8591 119.567L30.7361 111.79Z" fill="url(#paint0_radial_6_18)"/>
</g>
<g filter="url(#filter1_f_6_18)">
<circle cx="84.4692" cy="142.762" r="35.5" transform="rotate(13.5696 84.4692 142.762)" fill="#FF4242"/>
</g>
<g filter="url(#filter2_f_6_18)">
<circle cx="209.868" cy="173.028" r="35.5" transform="rotate(13.5696 209.868 173.028)" fill="#FF4242"/>
</g>
<g filter="url(#filter3_i_6_18)">
<path d="M133.548 118.602C137.553 119.569 141.67 117.088 141.755 112.969C141.89 106.431 140.163 99.9343 136.7 94.2676C131.929 86.4602 124.252 80.8679 115.357 78.7211C106.462 76.5743 97.0794 78.0487 89.272 82.8201C83.8974 86.1046 79.5725 90.7664 76.6988 96.2543C74.5285 100.399 77.412 105.053 81.9596 106.151C86.223 107.18 90.4071 104.364 93.1507 100.942C94.4482 99.3243 96.0264 97.9262 97.8301 96.8239C101.924 94.3223 106.843 93.5492 111.506 94.6748C116.17 95.8004 120.195 98.7324 122.697 102.826C123.62 104.337 124.308 105.96 124.752 107.641C126.013 112.422 128.742 117.442 133.548 118.602Z" fill="#C4C4C4"/>
<path d="M133.548 118.602C137.553 119.569 141.67 117.088 141.755 112.969C141.89 106.431 140.163 99.9343 136.7 94.2676C131.929 86.4602 124.252 80.8679 115.357 78.7211C106.462 76.5743 97.0794 78.0487 89.272 82.8201C83.8974 86.1046 79.5725 90.7664 76.6988 96.2543C74.5285 100.399 77.412 105.053 81.9596 106.151C86.223 107.18 90.4071 104.364 93.1507 100.942C94.4482 99.3243 96.0264 97.9262 97.8301 96.8239C101.924 94.3223 106.843 93.5492 111.506 94.6748C116.17 95.8004 120.195 98.7324 122.697 102.826C123.62 104.337 124.308 105.96 124.752 107.641C126.013 112.422 128.742 117.442 133.548 118.602Z" fill="#221725"/>
</g>
<g filter="url(#filter4_i_6_18)">
<path d="M227.84 141.361C231.845 142.328 235.963 139.847 236.048 135.727C236.182 129.19 234.456 122.693 230.993 117.026C226.221 109.219 218.544 103.627 209.649 101.48C200.755 99.333 191.372 100.807 183.564 105.579C178.19 108.863 173.865 113.525 170.991 119.013C168.821 123.157 171.704 127.812 176.252 128.91C180.515 129.939 184.699 127.123 187.443 123.701C188.741 122.083 190.319 120.685 192.122 119.583C196.216 117.081 201.135 116.308 205.799 117.434C210.462 118.559 214.487 121.491 216.989 125.585C217.912 127.095 218.6 128.719 219.044 130.4C220.306 135.181 223.034 140.201 227.84 141.361Z" fill="#C4C4C4"/>
<path d="M227.84 141.361C231.845 142.328 235.963 139.847 236.048 135.727C236.182 129.19 234.456 122.693 230.993 117.026C226.221 109.219 218.544 103.627 209.649 101.48C200.755 99.333 191.372 100.807 183.564 105.579C178.19 108.863 173.865 113.525 170.991 119.013C168.821 123.157 171.704 127.812 176.252 128.91C180.515 129.939 184.699 127.123 187.443 123.701C188.741 122.083 190.319 120.685 192.122 119.583C196.216 117.081 201.135 116.308 205.799 117.434C210.462 118.559 214.487 121.491 216.989 125.585C217.912 127.095 218.6 128.719 219.044 130.4C220.306 135.181 223.034 140.201 227.84 141.361Z" fill="#221725"/>
</g>
<g filter="url(#filter5_diiii_6_18)">
<mask id="path-6-inside-1_6_18" fill="white">
<path d="M205.775 151.466C210.359 152.573 213.236 157.221 211.456 161.587C209.54 166.289 206.994 170.737 203.87 174.824C198.997 181.198 192.813 186.567 185.673 190.623C178.533 194.679 170.575 197.342 162.255 198.462C153.934 199.581 145.414 199.135 137.18 197.147C128.946 195.16 121.16 191.671 114.267 186.879C107.373 182.088 101.507 176.087 97.0026 169.221C92.4986 162.354 89.445 154.756 88.0162 146.861C87.1004 141.799 86.8637 136.679 87.3028 131.621C87.7105 126.924 92.3915 124.099 96.9751 125.206C101.559 126.312 104.285 130.942 104.13 135.655C104.033 138.635 104.252 141.633 104.79 144.604C105.84 150.409 108.085 155.996 111.397 161.045C114.709 166.093 119.022 170.505 124.091 174.028C129.159 177.551 134.884 180.117 140.938 181.578C146.992 183.039 153.257 183.367 159.375 182.544C165.492 181.721 171.343 179.763 176.593 176.781C181.843 173.798 186.39 169.851 189.973 165.164C191.806 162.766 193.369 160.198 194.642 157.501C196.654 153.237 201.192 150.36 205.775 151.466Z"/>
</mask>
<path d="M205.775 151.466C210.359 152.573 213.236 157.221 211.456 161.587C209.54 166.289 206.994 170.737 203.87 174.824C198.997 181.198 192.813 186.567 185.673 190.623C178.533 194.679 170.575 197.342 162.255 198.462C153.934 199.581 145.414 199.135 137.18 197.147C128.946 195.16 121.16 191.671 114.267 186.879C107.373 182.088 101.507 176.087 97.0026 169.221C92.4986 162.354 89.445 154.756 88.0162 146.861C87.1004 141.799 86.8637 136.679 87.3028 131.621C87.7105 126.924 92.3915 124.099 96.9751 125.206C101.559 126.312 104.285 130.942 104.13 135.655C104.033 138.635 104.252 141.633 104.79 144.604C105.84 150.409 108.085 155.996 111.397 161.045C114.709 166.093 119.022 170.505 124.091 174.028C129.159 177.551 134.884 180.117 140.938 181.578C146.992 183.039 153.257 183.367 159.375 182.544C165.492 181.721 171.343 179.763 176.593 176.781C181.843 173.798 186.39 169.851 189.973 165.164C191.806 162.766 193.369 160.198 194.642 157.501C196.654 153.237 201.192 150.36 205.775 151.466Z" stroke="url(#paint1_linear_6_18)" stroke-width="22" stroke-linejoin="round" mask="url(#path-6-inside-1_6_18)"/>
</g>
</g>
<defs>
<filter id="filter0_iii_6_18" x="14.3973" y="-0.254562" width="278.883" height="328.534" filterUnits="userSpaceOnUse" color-interpolation-filters="sRGB">
<feFlood flood-opacity="0" result="BackgroundImageFix"/>
<feBlend mode="normal" in="SourceGraphic" in2="BackgroundImageFix" result="shape"/>
<feColorMatrix in="SourceAlpha" type="matrix" values="0 0 0 0 0 0 0 0 0 0 0 0 0 0 0 0 0 0 127 0" result="hardAlpha"/>
<feMorphology radius="8" operator="erode" in="SourceAlpha" result="effect1_innerShadow_6_18"/>
<feOffset dx="21" dy="73"/>
<feGaussianBlur stdDeviation="24"/>
<feComposite in2="hardAlpha" operator="arithmetic" k2="-1" k3="1"/>
<feColorMatrix type="matrix" values="0 0 0 0 0.682806 0 0 0 0 0.0652778 0 0 0 0 0.783333 0 0 0 0.14 0"/>
<feBlend mode="normal" in2="shape" result="effect1_innerShadow_6_18"/>
<feColorMatrix in="SourceAlpha" type="matrix" values="0 0 0 0 0 0 0 0 0 0 0 0 0 0 0 0 0 0 127 0" result="hardAlpha"/>
<feOffset dy="-24"/>
<feGaussianBlur stdDeviation="15.5"/>
<feComposite in2="hardAlpha" operator="arithmetic" k2="-1" k3="1"/>
<feColorMatrix type="matrix" values="0 0 0 0 0.943639 0 0 0 0 0.223611 0 0 0 0 0.958333 0 0 0 0.44 0"/>
<feBlend mode="normal" in2="effect1_innerShadow_6_18" result="effect2_innerShadow_6_18"/>
<feColorMatrix in="SourceAlpha" type="matrix" values="0 0 0 0 0 0 0 0 0 0 0 0 0 0 0 0 0 0 127 0" result="hardAlpha"/>
<feOffset dx="-11" dy="30"/>
<feGaussianBlur stdDeviation="15.5"/>
<feComposite in2="hardAlpha" operator="arithmetic" k2="-1" k3="1"/>
<feColorMatrix type="matrix" values="0 0 0 0 1 0 0 0 0 0.766722 0 0 0 0 0.693056 0 0 0 0.68 0"/>
<feBlend mode="normal" in2="effect2_innerShadow_6_18" result="effect3_innerShadow_6_18"/>
</filter>
<filter id="filter1_f_6_18" x="9.96103" y="68.2534" width="149.016" height="149.016" filterUnits="userSpaceOnUse" color-interpolation-filters="sRGB">
<feFlood flood-opacity="0" result="BackgroundImageFix"/>
<feBlend mode="normal" in="SourceGraphic" in2="BackgroundImageFix" result="shape"/>
<feGaussianBlur stdDeviation="19.5" result="effect1_foregroundBlur_6_18"/>
</filter>
<filter id="filter2_f_6_18" x="135.36" y="98.5203" width="149.016" height="149.016" filterUnits="userSpaceOnUse" color-interpolation-filters="sRGB">
<feFlood flood-opacity="0" result="BackgroundImageFix"/>
<feBlend mode="normal" in="SourceGraphic" in2="BackgroundImageFix" result="shape"/>
<feGaussianBlur stdDeviation="19.5" result="effect1_foregroundBlur_6_18"/>
</filter>
<filter id="filter3_i_6_18" x="75.962" y="77.7579" width="65.8005" height="41.053" filterUnits="userSpaceOnUse" color-interpolation-filters="sRGB">
<feFlood flood-opacity="0" result="BackgroundImageFix"/>
<feBlend mode="normal" in="SourceGraphic" in2="BackgroundImageFix" result="shape"/>
<feColorMatrix in="SourceAlpha" type="matrix" values="0 0 0 0 0 0 0 0 0 0 0 0 0 0 0 0 0 0 127 0" result="hardAlpha"/>
<feMorphology radius="26.45" operator="dilate" in="SourceAlpha" result="effect1_innerShadow_6_18"/>
<feOffset dx="9.2" dy="-7"/>
<feGaussianBlur stdDeviation="10.35"/>
<feComposite in2="hardAlpha" operator="arithmetic" k2="-1" k3="1"/>
<feColorMatrix type="matrix" values="0 0 0 0 0.462111 0 0 0 0 0.203767 0 0 0 0 0.504167 0 0 0 0.35 0"/>
<feBlend mode="normal" in2="shape" result="effect1_innerShadow_6_18"/>
</filter>
<filter id="filter4_i_6_18" x="170.254" y="100.517" width="65.8005" height="41.053" filterUnits="userSpaceOnUse" color-interpolation-filters="sRGB">
<feFlood flood-opacity="0" result="BackgroundImageFix"/>
<feBlend mode="normal" in="SourceGraphic" in2="BackgroundImageFix" result="shape"/>
<feColorMatrix in="SourceAlpha" type="matrix" values="0 0 0 0 0 0 0 0 0 0 0 0 0 0 0 0 0 0 127 0" result="hardAlpha"/>
<feMorphology radius="26.45" operator="dilate" in="SourceAlpha" result="effect1_innerShadow_6_18"/>
<feOffset dx="9.2" dy="-9"/>
<feGaussianBlur stdDeviation="10.35"/>
<feComposite in2="hardAlpha" operator="arithmetic" k2="-1" k3="1"/>
<feColorMatrix type="matrix" values="0 0 0 0 0.462111 0 0 0 0 0.203767 0 0 0 0 0.504167 0 0 0 0.35 0"/>
<feBlend mode="normal" in2="shape" result="effect1_innerShadow_6_18"/>
</filter>
<filter id="filter5_diiii_6_18" x="53.7556" y="108.299" width="191.567" height="140.764" filterUnits="userSpaceOnUse" color-interpolation-filters="sRGB">
<feFlood flood-opacity="0" result="BackgroundImageFix"/>
<feColorMatrix in="SourceAlpha" type="matrix" values="0 0 0 0 0 0 0 0 0 0 0 0 0 0 0 0 0 0 127 0" result="hardAlpha"/>
<feOffset dy="16.6667"/>
<feGaussianBlur stdDeviation="16.6667"/>
<feColorMatrix type="matrix" values="0 0 0 0 0.0298758 0 0 0 0 0.0216858 0 0 0 0 0.0308333 0 0 0 0.24 0"/>
<feBlend mode="normal" in2="BackgroundImageFix" result="effect1_dropShadow_6_18"/>
<feBlend mode="normal" in="SourceGraphic" in2="effect1_dropShadow_6_18" result="shape"/>
<feColorMatrix in="SourceAlpha" type="matrix" values="0 0 0 0 0 0 0 0 0 0 0 0 0 0 0 0 0 0 127 0" result="hardAlpha"/>
<feOffset dy="5.18518"/>
<feGaussianBlur stdDeviation="2.59259"/>
<feComposite in2="hardAlpha" operator="arithmetic" k2="-1" k3="1"/>
<feColorMatrix type="matrix" values="0 0 0 0 0.17328 0 0 0 0 0.125777 0 0 0 0 0.178833 0 0 0 1 0"/>
<feBlend mode="normal" in2="shape" result="effect2_innerShadow_6_18"/>
<feColorMatrix in="SourceAlpha" type="matrix" values="0 0 0 0 0 0 0 0 0 0 0 0 0 0 0 0 0 0 127 0" result="hardAlpha"/>
<feOffset dy="-2.59259"/>
<feGaussianBlur stdDeviation="1.2963"/>
<feComposite in2="hardAlpha" operator="arithmetic" k2="-1" k3="1"/>
<feColorMatrix type="matrix" values="0 0 0 0 0.119503 0 0 0 0 0.086743 0 0 0 0 0.123333 0 0 0 1 0"/>
<feBlend mode="normal" in2="effect2_innerShadow_6_18" result="effect3_innerShadow_6_18"/>
<feColorMatrix in="SourceAlpha" type="matrix" values="0 0 0 0 0 0 0 0 0 0 0 0 0 0 0 0 0 0 127 0" result="hardAlpha"/>
<feMorphology radius="26.45" operator="dilate" in="SourceAlpha" result="effect4_innerShadow_6_18"/>
<feOffset dx="9.2" dy="-9"/>
<feGaussianBlur stdDeviation="10.35"/>
<feComposite in2="hardAlpha" operator="arithmetic" k2="-1" k3="1"/>
<feColorMatrix type="matrix" values="0 0 0 0 0.462111 0 0 0 0 0.203767 0 0 0 0 0.504167 0 0 0 0.35 0"/>
<feBlend mode="normal" in2="effect3_innerShadow_6_18" result="effect4_innerShadow_6_18"/>
<feColorMatrix in="SourceAlpha" type="matrix" values="0 0 0 0 0 0 0 0 0 0 0 0 0 0 0 0 0 0 127 0" result="hardAlpha"/>
<feMorphology radius="26.45" operator="dilate" in="SourceAlpha" result="effect5_innerShadow_6_18"/>
<feOffset dx="9.2" dy="-9"/>
<feGaussianBlur stdDeviation="10.35"/>
<feComposite in2="hardAlpha" operator="arithmetic" k2="-1" k3="1"/>
<feColorMatrix type="matrix" values="0 0 0 0 0.462111 0 0 0 0 0.203767 0 0 0 0 0.504167 0 0 0 0.35 0"/>
<feBlend mode="normal" in2="effect4_innerShadow_6_18" result="effect5_innerShadow_6_18"/>
</filter>
<radialGradient id="paint0_radial_6_18" cx="0" cy="0" r="1" gradientUnits="userSpaceOnUse" gradientTransform="translate(159.921 41.1277) rotate(100.086) scale(230.426)">
<stop offset="0.576389" stop-color="#FFBB0C"/>
<stop offset="1" stop-color="#FFC907"/>
</radialGradient>
<linearGradient id="paint1_linear_6_18" x1="165.57" y1="79.5248" x2="137.18" y2="197.147" gradientUnits="userSpaceOnUse">
<stop stop-color="#201721"/>
<stop offset="1" stop-color="#2B1F2C"/>
</linearGradient>
<clipPath id="clip0_6_18">
<rect width="246" height="246" fill="white" transform="translate(57.7181) rotate(13.5696)"/>
</clipPath>
</defs>
</svg>
